HIERARCHY
ROOT Hips
{
	OFFSET -14.64140 90.27770 -84.91600
	CHANNELS 6 Xposition Yposition Zposition Zrotation Xrotation Yrotation
	JOINT Spine
	{
		OFFSET 0.00000 13.20850 -1.60436
		CHANNELS 3 Zrotation Xrotation Yrotation
		JOINT Spine1
		{
			OFFSET 0.00000 8.61716 0.00000
			CHANNELS 3 Zrotation Xrotation Yrotation
			JOINT Spine2
			{
				OFFSET 0.00000 8.61717 0.00000
				CHANNELS 3 Zrotation Xrotation Yrotation
				JOINT Spine3
				{
					OFFSET 0.00000 8.61717 0.00000
					CHANNELS 3 Zrotation Xrotation Yrotation
					JOINT Neck
					{
						OFFSET 0.00000 11.07920 1.10792
						CHANNELS 3 Zrotation Xrotation Yrotation
						JOINT Neck1
						{
							OFFSET 0.00000 7.08032 0.00000
							CHANNELS 3 Zrotation Xrotation Yrotation
							JOINT Head
							{
								OFFSET 0.00000 7.08031 0.00000
								CHANNELS 3 Zrotation Xrotation Yrotation
								End site
								{
									OFFSET 0.00000 0.00000 0.00000
								}
							}
						}
					}
					JOINT RightShoulder
					{
						OFFSET -0.01000 7.91373 5.19711
						CHANNELS 3 Zrotation Xrotation Yrotation
						JOINT RightArm
						{
							OFFSET -18.41580 0.00000 0.00000
							CHANNELS 3 Zrotation Xrotation Yrotation
							JOINT RightForeArm
							{
								OFFSET -29.11090 0.00000 0.00000
								CHANNELS 3 Zrotation Xrotation Yrotation
								JOINT RightHand
								{
									OFFSET -24.65040 0.00000 0.00000
									CHANNELS 3 Zrotation Xrotation Yrotation
									JOINT RightHandThumb1
									{
										OFFSET -5.35114 -0.85590 3.97906
										CHANNELS 3 Zrotation Xrotation Yrotation
										JOINT RightHandThumb2
										{
											OFFSET -4.52789 0.00000 0.00000
											CHANNELS 3 Zrotation Xrotation Yrotation
											JOINT RightHandThumb3
											{
												OFFSET -2.46976 0.00000 0.00000
												CHANNELS 3 Zrotation Xrotation Yrotation
												End site
												{
													OFFSET 0.00000 0.00000 0.00000
												}
											}
										}
									}
									JOINT RightHandIndex1
									{
										OFFSET -14.26970 0.00000 2.88139
										CHANNELS 3 Zrotation Xrotation Yrotation
										JOINT RightHandIndex2
										{
											OFFSET -5.48836 0.00000 0.00000
											CHANNELS 3 Zrotation Xrotation Yrotation
											JOINT RightHandIndex3
											{
												OFFSET -3.01859 0.00000 0.00000
												CHANNELS 3 Zrotation Xrotation Yrotation
												End site
												{
													OFFSET 0.00000 0.00000 0.00000
												}
											}
										}
									}
									JOINT RightHandMiddle1
									{
										OFFSET -14.26970 0.00000 -0.09147
										CHANNELS 3 Zrotation Xrotation Yrotation
										JOINT RightHandMiddle2
										{
											OFFSET -6.17441 0.00000 0.00000
											CHANNELS 3 Zrotation Xrotation Yrotation
											JOINT RightHandMiddle3
											{
												OFFSET -3.56743 0.00000 0.00000
												CHANNELS 3 Zrotation Xrotation Yrotation
												End site
												{
													OFFSET 0.00000 0.00000 0.00000
												}
											}
										}
									}
									JOINT RightHandRing1
									{
										OFFSET -12.69180 0.00000 -3.06433
										CHANNELS 3 Zrotation Xrotation Yrotation
										JOINT RightHandRing2
										{
											OFFSET -5.62556 0.00000 0.00000
											CHANNELS 3 Zrotation Xrotation Yrotation
											JOINT RightHandRing3
											{
												OFFSET -3.56744 0.00000 0.00000
												CHANNELS 3 Zrotation Xrotation Yrotation
												End site
												{
													OFFSET 0.00000 0.00000 0.00000
												}
											}
										}
									}
									JOINT RightHandPinky1
									{
										OFFSET -11.11390 0.00000 -6.03719
										CHANNELS 3 Zrotation Xrotation Yrotation
										JOINT RightHandPinky2
										{
											OFFSET -4.52789 0.00000 0.00000
											CHANNELS 3 Zrotation Xrotation Yrotation
											JOINT RightHandPinky3
											{
												OFFSET -2.46976 0.00000 0.00000
												CHANNELS 3 Zrotation Xrotation Yrotation
												End site
												{
													OFFSET 0.00000 0.00000 0.00000
												}
											}
										}
									}
								}
							}
						}
					}
					JOINT LeftShoulder
					{
						OFFSET 0.01000 7.91373 5.19711
						CHANNELS 3 Zrotation Xrotation Yrotation
						JOINT LeftArm
						{
							OFFSET 18.41580 0.00000 0.00000
							CHANNELS 3 Zrotation Xrotation Yrotation
							JOINT LeftForeArm
							{
								OFFSET 29.11090 0.00000 0.00000
								CHANNELS 3 Zrotation Xrotation Yrotation
								JOINT LeftHand
								{
									OFFSET 24.65040 0.00000 0.00000
									CHANNELS 3 Zrotation Xrotation Yrotation
									JOINT LeftHandThumb1
									{
										OFFSET 5.35114 -0.85590 3.97906
										CHANNELS 3 Zrotation Xrotation Yrotation
										JOINT LeftHandThumb2
										{
											OFFSET 4.52789 0.00000 0.00000
											CHANNELS 3 Zrotation Xrotation Yrotation
											JOINT LeftHandThumb3
											{
												OFFSET 2.46977 0.00000 0.00000
												CHANNELS 3 Zrotation Xrotation Yrotation
												End site
												{
													OFFSET 0.00000 0.00000 0.00000
												}
											}
										}
									}
									JOINT LeftHandIndex1
									{
										OFFSET 14.26970 0.00000 2.88139
										CHANNELS 3 Zrotation Xrotation Yrotation
										JOINT LeftHandIndex2
										{
											OFFSET 5.48836 0.00000 0.00000
											CHANNELS 3 Zrotation Xrotation Yrotation
											JOINT LeftHandIndex3
											{
												OFFSET 3.01859 0.00000 0.00000
												CHANNELS 3 Zrotation Xrotation Yrotation
												End site
												{
													OFFSET 0.00000 0.00000 0.00000
												}
											}
										}
									}
									JOINT LeftHandMiddle1
									{
										OFFSET 14.26970 0.00000 -0.09147
										CHANNELS 3 Zrotation Xrotation Yrotation
										JOINT LeftHandMiddle2
										{
											OFFSET 6.17440 0.00000 0.00000
											CHANNELS 3 Zrotation Xrotation Yrotation
											JOINT LeftHandMiddle3
											{
												OFFSET 3.56744 0.00000 0.00000
												CHANNELS 3 Zrotation Xrotation Yrotation
												End site
												{
													OFFSET 0.00000 0.00000 0.00000
												}
											}
										}
									}
									JOINT LeftHandRing1
									{
										OFFSET 12.69180 0.00000 -3.06433
										CHANNELS 3 Zrotation Xrotation Yrotation
										JOINT LeftHandRing2
										{
											OFFSET 5.62556 0.00000 0.00000
											CHANNELS 3 Zrotation Xrotation Yrotation
											JOINT LeftHandRing3
											{
												OFFSET 3.56744 0.00000 0.00000
												CHANNELS 3 Zrotation Xrotation Yrotation
												End site
												{
													OFFSET 0.00000 0.00000 0.00000
												}
											}
										}
									}
									JOINT LeftHandPinky1
									{
										OFFSET 11.11390 0.00000 -6.03719
										CHANNELS 3 Zrotation Xrotation Yrotation
										JOINT LeftHandPinky2
										{
											OFFSET 4.52789 0.00000 0.00000
											CHANNELS 3 Zrotation Xrotation Yrotation
											JOINT LeftHandPinky3
											{
												OFFSET 2.46976 0.00000 0.00000
												CHANNELS 3 Zrotation Xrotation Yrotation
												End site
												{
													OFFSET 0.00000 0.00000 0.00000
												}
											}
										}
									}
								}
							}
						}
					}
					JOINT pCube4
					{
						OFFSET 0.00000 10.91090 1.10792
						CHANNELS 3 Zrotation Xrotation Yrotation
						End site
						{
							OFFSET 0.00000 0.00000 0.00000
						}
					}
				}
			}
		}
	}
	JOINT RightUpLeg
	{
		OFFSET -9.98441 0.00000 0.00000
		CHANNELS 3 Zrotation Xrotation Yrotation
		JOINT RightLeg
		{
			OFFSET 0.00000 -42.11790 0.00000
			CHANNELS 3 Zrotation Xrotation Yrotation
			JOINT RightFoot
			{
				OFFSET 0.00000 -45.00020 -0.00001
				CHANNELS 3 Zrotation Xrotation Yrotation
				JOINT RightForeFoot
				{
					OFFSET 0.00000 -3.74820 0.00000
					CHANNELS 3 Zrotation Xrotation Yrotation
					JOINT RightToeBase
					{
						OFFSET 0.00000 0.06325 14.43120
						CHANNELS 3 Zrotation Xrotation Yrotation
						End site
						{
							OFFSET 0.00000 0.00000 0.00000
						}
					}
				}
			}
		}
	}
	JOINT LeftUpLeg
	{
		OFFSET 9.98441 0.00000 0.00000
		CHANNELS 3 Zrotation Xrotation Yrotation
		JOINT LeftLeg
		{
			OFFSET 0.00000 -42.11800 0.00000
			CHANNELS 3 Zrotation Xrotation Yrotation
			JOINT LeftFoot
			{
				OFFSET 0.00000 -45.00070 0.00000
				CHANNELS 3 Zrotation Xrotation Yrotation
				JOINT LeftForeFoot
				{
					OFFSET 0.00000 -3.74824 0.00000
					CHANNELS 3 Zrotation Xrotation Yrotation
					JOINT LeftToeBase
					{
						OFFSET 0.00000 0.06325 14.43110
						CHANNELS 3 Zrotation Xrotation Yrotation
						End site
						{
							OFFSET 0.00000 0.00000 0.00000
						}
					}
				}
			}
		}
	}
}
MOTION
Frames: 4
Frame Time: 0.050000
0.01433121256187106 0.031007553728705478 0.04276996028763105 0.010250481497018658 0.04023577303402141 -0.02495180702162159 5.486275307113387 3.5483557389243017 -2.2304707213130452 -0.8012267542240978 3.5989193432779647 0.3721051842461176 -0.5969593481583471 -1.0241811371538119 0.877921514636503 -0.47318426187207024 -0.25863206990907217 -0.18713333101821383 -0.1661058875562319 12.609094562097384 -1.1792794909639188 0.4003031559943432 -0.8016792078385011 -2.2240174411516405 0.8502596135623743 -17.595076138959882 -0.2164127303354741 -9.952242070675064 3.5104648737643616 -17.93279321265181 83.83600546120701 8.647083434069293 2.126997792466833 -4.298903777915739 7.350211216367145 44.15674018751354 17.62316165365835 -0.27143852977991645 -2.6655390059030175 4.575699411980476 -0.14035510784916572 -1.5962565070902501 0.022876933537846124 -0.0133471282226374 -56.260727110296315 -0.007728933027129847 -0.0021172680455390923 -56.2792372962962 -38.77055367589892 0.007539251249529381 0.02709657009615305 -0.009720586221229179 0.010766316450727823 -0.026320858140188575 -0.03303476139926472 -0.00957598337230421 0.023640241893054838 -36.65195215084931 0.04147115929968975 -0.04451446735626516 0.017109621775030226 -0.007087369181911903 0.03608522399561775 0.04148464058587933 -0.03265202993664859 -0.012310691501213436 -19.74842611490745 0.008969635513054089 0.013012139521383055 -0.013964384038708557 0.010330188994117515 0.0143119750735636 0.02404914931080617 0.006889135234175673 -0.006258796229301893 24.024549760855763 -0.01732780359591536 -0.04556773389974585 28.850611337965216 -0.04384282268844203 0.01522109266561792 28.83652222154429 -0.014811267569955966 0.0412425396628749 10.05855810691322 2.44590915486355 15.164669378574066 -78.49501999010803 17.664091763652934 -12.651935635340152 2.190539734708227 7.212198441279092 -45.84513350571184 -18.96302648441018 -0.7961832545638484 0.8471815286054567 -0.47109330623275714 0.06720600073090179 -8.129051502892397 0.00851554407654546 -0.021293320643601735 44.53577642172533 -0.0294399625160153 0.04655335991924292 44.528453585177004 12.415604493824226 -0.023573004936622843 0.033615324622079557 0.014509019565125186 0.005169648139303724 -0.009192922770563935 0.01830512742689895 0.027585360677474004 0.03158800272522112 11.090777728219882 -0.01120363192978257 -0.009271038263094986 0.005242278168513524 -0.030055762975037044 -0.021423436681889504 0.02972964304308794 0.024957107042934534 -0.022124044952838 4.791817817380729 0.04843947345827841 -0.004058897718471082 0.01367453090534661 -0.0156121632503912 -0.012543068325632407 -0.0381883086805991 0.03278332518195056 0.019790009283875535 -5.593006462468654 -0.02235346801102753 0.012946109810008927 -6.687822512061811 -0.043070884631672385 0.015220695054867252 -6.702819675100409 0.04798930817504806 -0.021597996823114682 -0.025418584253004722 -0.006067354533302843 0.04080680402005087 7.998064664769885 3.453766923560087 -19.254090602955344 -0.04874021739644684 10.382316856054421 0.036093887825296794 -5.58377752557984 -15.66022192782242 3.1719289095076584 -0.006156982246932815 -0.02789048638709591 0.03276317078768213 -0.006132518270057374 4.701004363867936 0.033225060719899446 12.420552571718625 -8.250847882471643 6.896841757511486 0.026264487965056944 46.3719968167297 -0.012642921040185781 -4.281984083991721 -14.758118121374709 -3.8771876359029713 -0.03542772831072833 0.012988358069098307 -0.02517578975920455 -0.001166104395098496 -10.791190187256356 0.009244904674033858 
-0.023645102804741937 0.04547153919928222 -0.010819807878879959 -0.018893219828200983 -0.021858621986170026 -0.02310673843042716 5.57217592243234 3.4913553862623994 -2.2846694345204557 -0.7259745051693415 3.665705668004047 0.3748227583122753 -0.5702973235497101 -1.0850526939299485 0.8150357409785021 -0.5163967344316597 -0.28434844145229354 -0.22985783530217913 -0.29860028259818006 13.081018695556386 -1.0100026775377788 0.39183047084221634 -0.675940662174607 -1.58133032118169 0.8462026667397153 -17.423020898572478 -0.20858218816218257 -10.136587434818663 3.5064455081387114 -17.96992015235278 83.91391226154414 8.472531209584357 2.4170527302025544 -4.21426674529795 7.476647737272048 44.30903333727495 17.772286417854012 -0.27762284335923393 -2.514288364671296 4.497055277545355 -0.14731751634637602 -1.5686879609338913 -0.04512220776568502 -0.011089747653057836 -56.228364904687226 -0.025884217983638592 -0.013612416279191315 -56.275500018292135 -38.81392969393589 -0.0006839969536463673 0.01797427482388945 -0.024280960048269885 -0.0019321788539034353 0.0207274615900672 -0.0012984707419239246 0.011479156754417266 0.017508676796201075 -36.64920698513386 -0.008274116063072148 0.03885358427793697 -0.014469425123568285 -0.04154923371831899 -0.02506524436230462 0.02005498093034911 0.034078768357435806 0.034532078805050194 -19.741719582752733 -0.01075826847099455 -0.005739525049684859 0.03274421714344159 0.04293059607962584 -0.04431605029489199 0.009402893932056245 -0.017964222706839592 -0.03875295468610026 24.063979040993942 -0.001567855354457618 0.04801135319231609 28.90658766040466 0.02328035993254824 0.005563720002464526 28.895337605099822 -0.04467178206601354 -0.006919647584746433 10.928141419286826 2.5617083282380633 15.39653640977104 -79.13343716519974 15.646834205611425 -16.654988411341776 0.5566139669753073 9.493763204918222 -50.76837770780289 -18.102498989725397 -0.3899534462919205 0.2083318580219436 -0.43084688506492036 0.019150577875067895 -8.108498843619595 -0.02211796873557544 0.03669174025667612 44.59043973581254 -0.011135270180542348 0.006217910232027431 44.61708541471574 12.476235843866675 -0.0454642684231206 0.028709470646491292 0.03644991296351718 -0.0434949223544841 -0.03130140727051606 -0.012373206299410295 -0.01653708862393186 0.03278610648272806 11.079480090155469 0.04120165547944459 0.018969070509810487 -0.007818430790277879 0.012041986601108792 0.009502025172319798 -0.02639600026239161 0.003251522434792506 0.04470747978650358 4.766147314139444 0.020799756667304475 0.03937361936548654 0.0399944981771492 0.04573869652524247 -0.029470010953117357 -0.032242494745608904 -0.049589621097698766 0.008900891765301597 -5.599573196485496 0.028531647842746505 0.03350080782379169 -6.689872144035671 0.02570582003720671 -0.011663150865114576 -6.71039089324759 -0.0038530121866219187 0.0015610325370863944 -0.010616832972832802 -0.023245156479903824 0.03660951707023736 8.009096883577909 3.445495383289049 -19.188497936617257 0.02752033335109277 10.440651038359837 0.012395920856651766 -5.650892773300964 -15.679407429226588 3.2382209824784147 -0.042652089223909936 0.010424968381329 -0.03400411246390364 0.034197213854608055 4.725662919857608 0.008708257165861856 12.489096225162099 -8.236146633535306 6.888997976461127 0.011490682176654545 46.392386968672874 -0.03922035960610916 -4.312131312196466 -14.7550276666236 -3.8439712606264176 -0.006198226652150814 -0.0002240907647434061 0.02826738262855109 -0.022107733557972856 -10.774778333569545 0.023547126491594836 
-0.045729032508573346 -0.03435135081981965 0.0029440641345259456 0.04737730423291522 0.008784087344909158 -0.04435923205557418 5.6273438536681955 3.3178421725116856 -2.2190302758044527 -0.7422758830431749 3.7004555704064264 0.3357121658626457 -0.4902884074713595 -1.1436911755099983 0.7071855831871031 -0.6186377803740951 -0.33747889871910786 -0.2918698843977974 -0.4318199539286742 13.46562573436199 -0.831853148925529 0.37955659547289844 -0.6162096567995904 -1.0900523298686513 0.7248796279447941 -17.34368650693489 -0.12203942418418474 -10.225553690947025 3.4627312495304285 -18.018435876207608 83.73976695338415 7.956275227408447 2.8609767956356835 -4.12684080589143 7.647977676633826 44.30583922443046 17.847919570467695 -0.2552158026049029 -2.369629484821946 4.515029878198946 -0.15204773685870557 -1.5807298805669239 0.003674975194804131 -0.009335992089878401 -56.21958417853257 0.003534376200142465 0.011452674878884746 -56.188678350389345 -38.782888583338625 -0.0021325964323062434 -0.017363218140614554 -0.015866032728087967 0.03325304935813553 -0.0015872685764459998 0.0404351124281811 -0.032120154069647584 -0.003977322126555489 -36.703286157522086 -0.011412087561379923 -0.014383524698232602 0.007365974004502413 0.020353105575668547 -0.04346990916969589 0.005380095777162966 0.024530963662913075 0.0450133437346106 -19.807269318140367 0.0160563278523958 -0.012850930052381967 -0.023398077779399253 -0.01735597711404151 -0.0019740327916160597 -0.02954552676748289 0.009553278797314955 -0.017510190286215317 24.077536985426182 0.00031995205368402725 -0.01714238458146104 28.876278645804398 -0.03204700507243175 -0.047651170167641296 28.86236017034319 0.00874035981595256 0.037258688093296764 11.689650576149555 2.6894093562065735 15.716587147594554 -79.6797725495967 12.952080071940138 -21.329920434810383 -0.9041211020670202 11.605532095858488 -56.26942301130737 -16.895865383610793 0.3438612471515081 -0.8362818652199262 -0.46024940438434775 0.10280410533956044 -8.078662814949709 0.007276424822898382 0.0076904552161760065 44.59160787761227 0.03004004243661706 -0.02484153416230358 44.54473760211514 12.438724284004133 0.004173615560365709 0.010421286663309031 0.010194743659397513 -0.049357043135398244 0.022573953017058432 -0.029786968983307297 0.005173407294870306 -0.021219292482953823 11.102909055317626 -0.034024163537745275 -0.010589967293431101 -0.03320629674413393 -0.0288556907197719 0.013507231239572133 -0.010936230126486621 -0.017177111244711555 -0.011717247090638948 4.7949785623419 -0.04844573511641672 0.010465024945459464 0.03180110816135605 -0.029491706244227124 0.002980865986140691 0.0013604338639280537 0.009883705798886753 -0.01194108170747491 -5.587422442721366 0.02175773084193855 -0.01799238567659506 -6.753666096047694 -0.006404968300293506 -0.016837504204675113 -6.724960030952113 0.003374106494408138 -0.007575972603851486 -0.015348688067084457 -0.0050776550396508914 0.004044096805105925 8.077030349086444 3.479255367715532 -19.199849029818846 0.03312423733675274 10.403921010124774 0.051236087338009134 -5.614762788454199 -15.69155376978579 3.1554017790378435 0.032862400313931686 0.02776349469555939 0.021114430524558424 0.030767548313748408 4.685861035197133 0.02275811935382574 12.448792201213207 -8.282300870699062 6.884632195035404 0.04436817582534568 46.389098895134076 -0.041179701595426596 -4.348141779010199 -14.7343470675305 -3.828907486149942 -0.04386843070883739 0.02819166854809314 -0.01695621199486133 0.01127262237035307 -10.775434915033403 0.02704024265561025 
0.02246232666990443 0.011215927456861783 0.017068881040697714 -0.006707865266654367 0.018275247800926448 0.002629266738667244 5.606884689882537 3.320233381894649 -2.232934835818377 -0.7959202046639019 3.707029785837568 0.3511543976723668 -0.5330417335224572 -1.1760180573202859 0.5500706962063722 -0.5563910456064511 -0.3574590971495738 -0.24565571032883318 -0.6197813549743941 13.606264028222819 -0.8285891696566935 0.38586873514941794 -0.614544452144096 -0.8255286845736917 0.6558734149467254 -17.306395598802432 -0.16036706440431303 -10.204966894998485 3.449717142368229 -17.961916954187416 83.72236292927069 7.8299764801798615 2.851778364380398 -4.09799442680763 7.654117647299838 43.95441461386832 17.953980103691734 -0.257502549766731 -2.2690999820330893 4.57374915310494 -0.14975904114726316 -1.5929360631023606 -0.03778151432189156 -0.028219645099531718 -56.2093928115617 0.04651295970457559 0.022953882184724803 -56.253041646627416 -38.77163727459375 0.01780423324175988 0.044188384549531924 -0.0017439357075646703 0.001376483855627225 0.018237625394942728 0.0249541016538072 -0.028564391943496033 -0.049843378200856076 -36.69925103260302 -0.02937816900772522 -0.02506399819878785 -0.0461330315785578 0.023292064047964984 0.042821006142806664 -0.03474356300206327 -0.02000683239644712 -0.02392580973352544 -19.800411791161284 -0.018119121470945083 0.0003596396714765537 -0.008843077320036075 0.04590223728376471 -0.0024158741306808053 0.023739456361726773 -0.0026033826715366544 -0.04195692888590511 24.051385709369924 0.04908567296861901 -0.011773044272376694 28.9039564010486 -0.0033135844768074933 0.045787604783334955 28.83234392062306 -0.018990202839113474 0.04149253786037277 12.269365228597046 2.8208765914850122 15.819709055380342 -79.84663816805623 10.9777727763854 -24.710026690122177 -1.7518141321953258 13.133621004677204 -60.47421886883329 -15.759677181090623 1.0436118545391415 -1.6864014456908871 -0.4859798646296208 0.06269235881799193 -8.110206271561765 0.03588829017214372 -0.02278748550232749 44.55261237064908 -0.01656120634552299 -0.0025817374446102234 44.547388397185244 12.41942859354196 -0.04733822316480809 0.024049209409060246 0.013376433196140566 -0.012940728584610645 0.009700238544874342 0.029342363880429236 0.015004139455985077 -0.038103241301776516 11.142940645932779 -0.017393414659772035 0.0005864229437938231 -0.025344559058724365 0.01697884398053035 0.049494694885330745 0.03019860320920096 0.01160089955392423 0.009054695920692598 4.770084802163532 -0.040195111131352414 0.020783777642726094 -0.0319125616679322 0.03066546003582118 0.006493746535839731 0.002976293890188168 0.005493493327929795 -0.022563534989882488 -5.582088207968501 0.03896719822839428 -0.03348622914429303 -6.675039257381264 -0.0177801652614665 0.02268524992924853 -6.68233281683696 0.02185088416841062 -0.03262786777300445 -0.00917356115496003 0.012153215543311904 0.024655162674487266 8.07506746375306 3.4907430563548054 -19.222073707540513 -0.026089900202860755 10.409069160650663 0.021659647157949116 -5.645912672595439 -15.628640818261621 3.182760426779011 -0.028096782582699695 0.0410208045488384 -0.018229366539630528 0.012165182018317748 4.721455632235032 -0.009107512670141597 12.416424117209974 -8.194649341041247 6.841565718371536 0.030945026086929332 46.390075918421026 -0.026762045629145657 -4.295944291688087 -14.699760556038925 -3.8029369051240773 -0.03954972073889983 -0.029081450096359315 -0.04368742959768643 0.003051659226404865 -10.787371343275673 0.012611621059123777 
